<?xml version="1.0" encoding="utf-8"?>
<svg viewBox="54.462 51.009 139.53 150.104" xmlns="http://www.w3.org/2000/svg">
  <path style="opacity: 0.9; fill: rgb(255, 177, 34);" d="M 62.315 51.009 C 43.992 79.741 61.896 99.645 73.844 108.019 C 104.26 129.335 124.449 143.395 155.881 168.872 L 161.836 163.081 C 161.836 163.081 161.836 163.078 161.836 163.078 C 134.918 138.422 104.314 115.513 80.816 88.764 L 161.836 163.078 L 165.482 159.534 C 134.615 132.745 61.414 70.924 62.315 51.009 Z M 167.362 160.372 L 156.927 170.502 C 156.485 170.931 156.533 172.012 157.031 172.147 C 167.401 174.949 170.351 179.004 174.207 182.971 C 179.327 189.237 180.994 196.384 184.448 199.298 C 190.834 204.689 196.528 197.072 192.813 189.521 C 190.279 184.369 186.916 180.457 182.492 175.714 C 178.068 170.972 171.855 165.625 167.362 160.372 Z M 169.913 167.082 C 169.944 167.083 169.974 167.085 170.005 167.088 C 170.721 167.156 171.248 167.792 171.18 168.509 C 171.112 169.226 170.476 169.752 169.759 169.684 C 169.042 169.616 168.516 168.98 168.583 168.263 C 168.648 167.582 169.228 167.066 169.913 167.082 Z M 178.684 176.315 C 178.715 176.315 178.746 176.317 178.776 176.32 C 179.493 176.388 180.02 177.024 179.952 177.741 C 179.885 178.459 179.248 178.987 178.53 178.919 C 177.813 178.851 177.286 178.214 177.355 177.496 C 177.42 176.814 178 176.298 178.684 176.315 Z M 186.276 185.644 C 186.307 185.645 186.338 185.646 186.368 185.649 C 187.085 185.717 187.611 186.353 187.544 187.07 C 187.476 187.787 186.84 188.313 186.123 188.246 C 185.406 188.178 184.879 187.542 184.947 186.825 C 185.012 186.143 185.592 185.628 186.276 185.644 Z" id="path28"/>
</svg>