<?xml version="1.0" standalone="no"?>
<!DOCTYPE svg PUBLIC "-//W3C//DTD SVG 20010904//EN"
 "http://www.w3.org/TR/2001/REC-SVG-20010904/DTD/svg10.dtd">
<svg version="1.0" xmlns="http://www.w3.org/2000/svg"
 width="600.000000pt" height="600.000000pt" viewBox="0 0 600.000000 600.000000"
 preserveAspectRatio="xMidYMid meet">
<metadata>
Created by potrace 1.14, written by Peter Selinger 2001-2017
</metadata>
<g transform="translate(0.000000,600.000000) scale(0.100000,-0.100000)"
fill="#000000" stroke="none">
<path d="M495 5953 c-11 -21 -22 -40 -25 -43 -13 -11 -50 -82 -50 -95 0 -7 -4
-15 -8 -17 -11 -4 -102 -213 -117 -268 -1 -3 -5 -12 -8 -20 -10 -24 -36 -122
-42 -159 -3 -19 -8 -37 -10 -41 -18 -29 -27 -365 -12 -460 22 -144 62 -272
129 -410 43 -88 117 -213 130 -218 4 -2 8 -10 8 -17 0 -7 3 -15 8 -17 4 -1 32
-34 63 -73 138 -171 280 -295 566 -493 95 -66 218 -153 233 -165 16 -13 121
-85 149 -102 9 -5 18 -13 21 -16 5 -5 256 -182 430 -303 25 -17 47 -33 50 -36
3 -3 28 -21 55 -40 28 -19 55 -38 60 -43 6 -4 62 -45 125 -89 63 -45 117 -84
120 -87 3 -4 13 -10 22 -16 41 -25 792 -583 949 -706 31 -24 69 -53 84 -64 15
-11 42 -32 59 -46 17 -14 81 -64 143 -112 61 -47 120 -93 130 -101 15 -12 137
-110 168 -134 54 -42 161 -128 165 -132 3 -3 39 -32 80 -65 41 -32 78 -64 82
-69 9 -14 2 -20 291 262 l105 104 -87 76 c-83 74 -147 129 -255 221 -27 23
-54 48 -61 54 -6 7 -30 27 -53 45 -23 19 -52 44 -65 55 -21 20 -96 86 -167
147 -14 12 -45 39 -70 60 -65 55 -90 77 -130 113 -19 18 -69 61 -110 97 -41
36 -77 67 -80 70 -3 3 -59 53 -125 110 -66 58 -129 114 -140 125 -11 11 -38
35 -60 54 -22 19 -78 69 -125 111 -47 42 -137 123 -200 180 -110 100 -131 118
-211 192 -76 70 -275 255 -315 293 -23 22 -108 103 -190 180 -367 348 -786
780 -1021 1051 -10 12 -39 46 -65 75 -25 30 -55 65 -67 79 -11 14 -27 32 -34
40 -75 81 -308 413 -362 513 -22 42 -26 50 -57 112 -29 57 -68 183 -70 229 -2
25 -5 46 -8 46 -3 0 -14 -17 -25 -37z m955 -1633 c51 -47 115 -105 141 -130
26 -25 65 -60 85 -78 21 -18 83 -74 137 -125 55 -51 112 -103 127 -117 32 -30
183 -166 214 -195 88 -80 222 -203 235 -216 9 -8 70 -64 136 -124 66 -61 140
-128 165 -151 25 -23 61 -56 80 -74 19 -18 75 -69 124 -114 49 -44 101 -92
116 -106 15 -14 66 -61 115 -105 48 -44 102 -93 119 -110 18 -16 81 -75 142
-130 60 -55 111 -102 114 -105 3 -3 30 -27 60 -55 31 -27 107 -98 170 -156 63
-58 140 -127 170 -155 30 -27 64 -58 75 -69 12 -11 45 -42 74 -69 29 -26 48
-47 43 -45 -8 4 -125 105 -172 149 -8 8 -40 35 -70 60 -30 25 -57 48 -60 51
-6 7 -48 44 -290 249 -47 40 -98 84 -115 99 -51 44 -109 94 -161 138 -27 23
-59 50 -70 60 -12 10 -45 38 -74 63 -29 25 -65 56 -80 70 -15 14 -51 45 -80
70 -85 72 -155 133 -160 139 -3 3 -34 31 -70 61 -36 30 -74 64 -86 75 -25 24
-149 135 -184 165 -26 22 -159 144 -294 270 -130 121 -613 605 -721 724 -98
106 -136 156 -78 99 16 -15 72 -66 123 -113z"/>
<path d="M4512 1421 c-248 -242 -250 -246 -154 -276 178 -55 335 -134 439
-222 71 -60 196 -189 235 -243 18 -25 35 -47 38 -50 13 -12 83 -136 150 -265
40 -77 78 -149 84 -160 66 -122 184 -208 280 -203 145 6 239 184 192 365 -18
72 -97 232 -118 241 -5 2 -8 8 -8 13 0 13 -106 153 -179 239 -80 92 -197 214
-345 359 -187 183 -263 260 -337 338 l-65 71 -212 -207z m350 -78 c13 -16 14
-25 10 -59 -2 -14 -43 -31 -64 -27 -9 3 -21 18 -27 34 -9 25 -7 33 9 49 25 25
52 26 72 3z m349 -369 c21 -25 20 -52 -2 -73 -31 -29 -76 -9 -84 36 -7 43 58
71 86 37z m311 -377 c28 -42 -26 -100 -67 -73 -45 30 -17 104 34 91 14 -4 29
-12 33 -18z"/>
</g>
</svg>
